<svg width="129" height="39" viewBox="0 0 129 39" fill="none" xmlns="http://www.w3.org/2000/svg">
<path d="M9.10372 38.1468C8.77527 38.1468 8.45475 38.143 8.12888 38.1363C7.4538 38.1284 6.78031 38.0752 6.11391 37.9773C5.49253 37.8805 4.89058 37.7005 4.32792 37.4431C3.77041 37.1879 3.26192 36.8532 2.82193 36.4519C2.37556 36.0554 2.00394 35.5955 1.7218 35.0904C1.43654 34.582 1.23913 34.0371 1.13643 33.4746C1.02553 32.8702 0.96553 32.2591 0.956944 31.6465C0.95011 31.4408 0.941162 30.7562 0.941162 30.7562V8.23323C0.941162 8.23323 0.950692 7.55911 0.956998 7.36106C0.965219 6.74943 1.02487 6.13924 1.13544 5.5358C1.23833 4.97178 1.43589 4.42529 1.7213 3.91525C2.00241 3.41051 2.37197 2.95023 2.81564 2.55226C3.25882 2.1505 3.76893 1.81411 4.32739 1.55535C4.88876 1.29881 5.48957 1.12004 6.1097 1.02501C6.77828 0.926114 7.45412 0.872646 8.13153 0.865054L9.10425 0.853149H119.891L120.875 0.865532C121.546 0.872746 122.216 0.925738 122.878 1.02406C123.505 1.12027 124.112 1.3003 124.68 1.55821C125.798 2.07968 126.709 2.9047 127.283 3.91763C127.564 4.42415 127.758 4.96618 127.86 5.52532C127.972 6.13372 128.034 6.7487 128.047 7.36535C128.05 7.64147 128.05 7.93806 128.05 8.23323C128.059 8.59886 128.059 8.94686 128.059 9.29772V29.7031C128.059 30.0573 128.059 30.403 128.05 30.7514C128.05 31.0685 128.05 31.3589 128.046 31.6579C128.034 32.2635 127.972 32.8675 127.862 33.465C127.761 34.0316 127.565 34.5807 127.28 35.0933C126.996 35.5929 126.626 36.0488 126.185 36.4443C125.745 36.8478 125.235 37.1844 124.676 37.4413C124.11 37.7006 123.504 37.8813 122.878 37.9773C122.212 38.0758 121.538 38.1289 120.863 38.1363C120.548 38.143 120.217 38.1468 119.896 38.1468L118.727 38.1487L9.10372 38.1468Z" fill="black"/>
<path d="M26.7013 19.7931C26.7129 18.9793 26.9519 18.1814 27.396 17.4736C27.8402 16.7658 28.4751 16.1711 29.2417 15.7449C28.7547 15.1158 28.1123 14.5982 27.3654 14.233C26.6185 13.8678 25.7878 13.6652 24.9391 13.6411C23.1289 13.4693 21.3739 14.6208 20.4515 14.6208C19.5111 14.6208 18.0909 13.6582 16.5614 13.6867C15.5722 13.7156 14.6081 13.9758 13.763 14.4419C12.918 14.908 12.2209 15.5641 11.7396 16.3463C9.65467 19.611 11.2098 24.409 13.207 27.048C14.2062 28.3402 15.374 29.7836 16.902 29.7324C18.3973 29.6763 18.9557 28.8701 20.7607 28.8701C22.5488 28.8701 23.0728 29.7324 24.6318 29.6999C26.2363 29.6763 27.2472 28.4019 28.2114 27.0975C28.9293 26.1767 29.4818 25.1591 29.8483 24.0823C28.9161 23.7257 28.1206 23.1288 27.561 22.3661C27.0014 21.6034 26.7024 20.7085 26.7013 19.7931V19.7931Z" fill="white"/>
<path d="M23.7566 11.9057C24.6314 10.9558 25.0624 9.73494 24.958 8.50232C23.6215 8.62928 22.3869 9.20703 21.5002 10.1204C21.0667 10.5667 20.7347 11.0858 20.5231 11.6481C20.3115 12.2105 20.2246 12.805 20.2673 13.3978C20.9358 13.404 21.5972 13.2729 22.2016 13.0145C22.806 12.756 23.3376 12.3769 23.7566 11.9057Z" fill="white"/>
<path d="M45.6026 26.4612H40.4999L39.2745 29.7337H37.1132L41.9463 17.6262H44.1919L49.025 29.7337H46.8269L45.6026 26.4612ZM41.0283 24.9511H45.0731L43.0792 19.64H43.0234L41.0283 24.9511Z" fill="white"/>
<path d="M59.4631 25.3205C59.4631 28.0637 57.8398 29.8261 55.39 29.8261C54.7695 29.8554 54.1523 29.7261 53.6092 29.453C53.0661 29.1799 52.619 28.7739 52.3192 28.2817H52.2728V32.6539H50.2694V20.9064H52.2086V22.3746H52.2455C52.5591 21.8847 53.0137 21.4808 53.561 21.206C54.1082 20.9312 54.7276 20.7958 55.3532 20.814C57.8303 20.814 59.4631 22.585 59.4631 25.3205ZM57.4039 25.3205C57.4039 23.5333 56.3828 22.3584 54.8247 22.3584C53.294 22.3584 52.2644 23.5581 52.2644 25.3205C52.2644 27.0991 53.294 28.2903 54.8247 28.2903C56.3828 28.2903 57.4039 27.1239 57.4039 25.3205Z" fill="white"/>
<path d="M70.2053 25.3205C70.2053 28.0636 68.582 29.8261 66.1322 29.8261C65.5117 29.8554 64.8945 29.7261 64.3514 29.453C63.8083 29.1799 63.3612 28.7739 63.0613 28.2817H63.015V32.6539H61.0116V20.9064H62.9508V22.3746H62.9876C63.3013 21.8847 63.7559 21.4808 64.3031 21.206C64.8504 20.9312 65.4697 20.7958 66.0953 20.814C68.5725 20.814 70.2053 22.585 70.2053 25.3205ZM68.1461 25.3205C68.1461 23.5333 67.125 22.3584 65.5669 22.3584C64.0362 22.3584 63.0066 23.5581 63.0066 25.3205C63.0066 27.0991 64.0362 28.2903 65.5669 28.2903C67.125 28.2903 68.1461 27.1239 68.1461 25.3205H68.1461Z" fill="white"/>
<path d="M77.3051 26.3602C77.4535 27.5609 78.7431 28.3492 80.5054 28.3492C82.1941 28.3492 83.4089 27.5609 83.4089 26.4783C83.4089 25.5385 82.6762 24.9758 80.9413 24.5902L79.2063 24.2122C76.7482 23.6752 75.607 22.6354 75.607 20.9482C75.607 18.8592 77.6198 17.4243 80.4781 17.4243C83.3068 17.4243 85.246 18.8592 85.3112 20.9482H83.2889C83.1678 19.7399 82.0635 19.0106 80.4496 19.0106C78.8357 19.0106 77.7314 19.7485 77.7314 20.8225C77.7314 21.6785 78.4368 22.1822 80.1622 22.5678L81.6371 22.8953C84.3837 23.4828 85.5249 24.4807 85.5249 26.2516C85.5249 28.5168 83.53 29.9355 80.357 29.9355C77.3882 29.9355 75.3838 28.5501 75.2543 26.3602L77.3051 26.3602Z" fill="white"/>
<path d="M89.8486 18.8174V20.9064H91.7046V22.3413H89.8486V27.2077C89.8486 27.9637 90.2202 28.316 91.0361 28.316C91.2564 28.3125 91.4764 28.2985 91.6951 28.2741V29.7004C91.3283 29.7624 90.9555 29.7904 90.5824 29.7842C88.6064 29.7842 87.8357 29.1129 87.8357 27.4009V22.3413H86.4166V20.9064H87.8357V18.8174H89.8486Z" fill="white"/>
<path d="M92.7795 25.3205C92.7795 22.5431 94.5882 20.7979 97.4085 20.7979C100.238 20.7979 102.039 22.5431 102.039 25.3205C102.039 28.1056 100.248 29.8432 97.4085 29.8432C94.5702 29.8432 92.7795 28.1056 92.7795 25.3205ZM99.9972 25.3205C99.9972 23.4153 99.0318 22.2908 97.4085 22.2908C95.7851 22.2908 94.8208 23.4239 94.8208 25.3205C94.8208 27.2334 95.7851 28.3493 97.4085 28.3493C99.0318 28.3493 99.9972 27.2334 99.9972 25.3205H99.9972Z" fill="white"/>
<path d="M103.69 20.9063H105.601V22.4088H105.647C105.777 21.9395 106.081 21.5248 106.508 21.2344C106.936 20.9439 107.461 20.7955 107.995 20.8139C108.226 20.8132 108.456 20.8359 108.681 20.8815V22.5763C108.39 22.4958 108.086 22.4588 107.781 22.4668C107.49 22.4562 107.2 22.5026 106.931 22.6029C106.661 22.7032 106.419 22.855 106.221 23.048C106.023 23.2409 105.873 23.4704 105.782 23.7207C105.691 23.9709 105.661 24.236 105.694 24.4978V29.7336H103.69L103.69 20.9063Z" fill="white"/>
<path d="M117.918 27.141C117.649 28.7435 115.923 29.8432 113.716 29.8432C110.876 29.8432 109.114 28.1227 109.114 25.3624C109.114 22.5936 110.886 20.7979 113.631 20.7979C116.332 20.7979 118.03 22.4755 118.03 25.152V25.7728H111.136V25.8823C111.105 26.2072 111.15 26.5344 111.268 26.8424C111.387 27.1503 111.577 27.4319 111.825 27.6684C112.074 27.9049 112.375 28.0909 112.709 28.214C113.043 28.3371 113.402 28.3946 113.762 28.3826C114.235 28.4228 114.71 28.3236 115.117 28.0999C115.523 27.8762 115.838 27.5399 116.016 27.141L117.918 27.141ZM111.146 24.5065H116.025C116.043 24.2143 115.994 23.922 115.882 23.6479C115.769 23.3737 115.594 23.1236 115.37 22.9132C115.145 22.7028 114.874 22.5367 114.575 22.4254C114.276 22.314 113.955 22.2598 113.631 22.2661C113.305 22.2643 112.982 22.321 112.68 22.4329C112.378 22.5447 112.104 22.7096 111.872 22.9179C111.641 23.1262 111.458 23.3738 111.333 23.6464C111.209 23.9191 111.145 24.2114 111.146 24.5065V24.5065Z" fill="white"/>
<path d="M79.8964 10.3887C79.8964 9.83309 80.0102 9.34108 80.2378 8.91267C80.472 8.48425 80.7867 8.1529 81.1816 7.9186C81.5833 7.67762 82.0251 7.55713 82.507 7.55713C82.9421 7.55713 83.3203 7.64415 83.6417 7.81819C83.9697 7.98555 84.2307 8.19641 84.4249 8.45078V7.6475H85.5796V13.1801H84.4249V12.3567C84.2307 12.6178 83.9663 12.8354 83.6316 13.0094C83.2969 13.1834 82.9154 13.2705 82.4869 13.2705C82.0117 13.2705 81.5766 13.15 81.1816 12.909C80.7867 12.6613 80.472 12.3199 80.2378 11.8848C80.0102 11.443 79.8964 10.9443 79.8964 10.3887ZM84.4249 10.4088C84.4249 10.0272 84.3445 9.69586 84.1839 9.41472C84.0299 9.13357 83.8257 8.91936 83.5714 8.77209C83.317 8.62482 83.0425 8.55119 82.748 8.55119C82.4535 8.55119 82.179 8.62482 81.9246 8.77209C81.6703 8.91267 81.4628 9.12353 81.3021 9.40467C81.1481 9.67913 81.0712 10.0071 81.0712 10.3887C81.0712 10.7703 81.1481 11.105 81.3021 11.3928C81.4628 11.6806 81.6703 11.9015 81.9246 12.0555C82.1857 12.2028 82.4602 12.2764 82.748 12.2764C83.0425 12.2764 83.317 12.2028 83.5714 12.0555C83.8257 11.9082 84.0299 11.694 84.1839 11.4129C84.3445 11.125 84.4249 10.7903 84.4249 10.4088Z" fill="white"/>
<path d="M76.5485 7.55713C76.9836 7.55713 77.3718 7.6475 77.7132 7.82824C78.0613 8.00897 78.3324 8.27673 78.5266 8.63152C78.7207 8.9863 78.8177 9.41472 78.8177 9.91677V13.1801H77.6831V10.0875C77.6831 9.59211 77.5593 9.2139 77.3116 8.95283C77.0639 8.68507 76.7259 8.55119 76.2975 8.55119C75.869 8.55119 75.5276 8.68507 75.2733 8.95283C75.0256 9.2139 74.9018 9.59211 74.9018 10.0875V13.1801H73.7571V7.6475H74.9018V8.28008C75.0892 8.05249 75.3268 7.87509 75.6147 7.74791C75.9092 7.62072 76.2205 7.55713 76.5485 7.55713Z" fill="white"/>
<path d="M68.4398 8.45078C68.6072 8.16963 68.8281 7.95208 69.1025 7.79811C69.3837 7.63746 69.7151 7.55713 70.0966 7.55713V8.74197H69.8054C69.3569 8.74197 69.0155 8.85577 68.7812 9.08336C68.5536 9.31096 68.4398 9.7059 68.4398 10.2682V13.1801H67.2952V7.6475H68.4398V8.45078Z" fill="white"/>
<path d="M60.1085 10.3887C60.1085 9.83309 60.2223 9.34108 60.4499 8.91267C60.6842 8.48425 60.9988 8.1529 61.3938 7.9186C61.7954 7.67762 62.2372 7.55713 62.7192 7.55713C63.1543 7.55713 63.5325 7.64415 63.8538 7.81819C64.1818 7.98555 64.4429 8.19641 64.637 8.45078V7.6475H65.7917V13.1801H64.637V12.3567C64.4429 12.6178 64.1785 12.8354 63.8438 13.0094C63.5091 13.1834 63.1275 13.2705 62.6991 13.2705C62.2238 13.2705 61.7887 13.15 61.3938 12.909C60.9988 12.6613 60.6842 12.3199 60.4499 11.8848C60.2223 11.443 60.1085 10.9443 60.1085 10.3887ZM64.637 10.4088C64.637 10.0272 64.5567 9.69586 64.396 9.41472C64.2421 9.13357 64.0379 8.91936 63.7835 8.77209C63.5292 8.62482 63.2547 8.55119 62.9602 8.55119C62.6656 8.55119 62.3912 8.62482 62.1368 8.77209C61.8824 8.91267 61.6749 9.12353 61.5143 9.40467C61.3603 9.67913 61.2833 10.0071 61.2833 10.3887C61.2833 10.7703 61.3603 11.105 61.5143 11.3928C61.6749 11.6806 61.8824 11.9015 62.1368 12.0555C62.3979 12.2028 62.6723 12.2764 62.9602 12.2764C63.2547 12.2764 63.5292 12.2028 63.7835 12.0555C64.0379 11.9082 64.2421 11.694 64.396 11.4129C64.5567 11.125 64.637 10.7903 64.637 10.4088Z" fill="white"/>
<path d="M57.849 10.3787L59.6363 13.1802H58.341L57.1461 11.3025L56.0215 13.1802H54.8267L56.614 10.4591L54.8267 7.64758H56.122L57.3168 9.52525L58.4414 7.64758H59.6363L57.849 10.3787Z" fill="white"/>
<path d="M53.4143 6.9146C53.2068 6.9146 53.0327 6.84431 52.8921 6.70373C52.7516 6.56316 52.6813 6.38912 52.6813 6.1816C52.6813 5.97409 52.7516 5.80004 52.8921 5.65947C53.0327 5.5189 53.2068 5.44861 53.4143 5.44861C53.6151 5.44861 53.7858 5.5189 53.9264 5.65947C54.0669 5.80004 54.1372 5.97409 54.1372 6.1816C54.1372 6.38912 54.0669 6.56316 53.9264 6.70373C53.7858 6.84431 53.6151 6.9146 53.4143 6.9146ZM53.9766 7.64759V13.1802H52.8319V7.64759H53.9766Z" fill="white"/>
<path d="M45.6451 10.3887C45.6451 9.83309 45.7589 9.34108 45.9865 8.91267C46.2208 8.48425 46.5354 8.1529 46.9304 7.9186C47.332 7.67762 47.7738 7.55713 48.2558 7.55713C48.6909 7.55713 49.0691 7.64415 49.3904 7.81819C49.7184 7.98555 49.9795 8.19641 50.1736 8.45078V7.6475H51.3284V13.1801H50.1736V12.3567C49.9795 12.6178 49.7151 12.8354 49.3804 13.0094C49.0457 13.1834 48.6641 13.2705 48.2357 13.2705C47.7604 13.2705 47.3253 13.15 46.9304 12.909C46.5354 12.6613 46.2208 12.3199 45.9865 11.8848C45.7589 11.443 45.6451 10.9443 45.6451 10.3887ZM50.1736 10.4088C50.1736 10.0272 50.0933 9.69586 49.9327 9.41472C49.7787 9.13357 49.5745 8.91936 49.3202 8.77209C49.0658 8.62482 48.7913 8.55119 48.4968 8.55119C48.2023 8.55119 47.9278 8.62482 47.6734 8.77209C47.4191 8.91267 47.2115 9.12353 47.0509 9.40467C46.8969 9.67913 46.8199 10.0071 46.8199 10.3887C46.8199 10.7703 46.8969 11.105 47.0509 11.3928C47.2115 11.6806 47.4191 11.9015 47.6734 12.0555C47.9345 12.2028 48.2089 12.2764 48.4968 12.2764C48.7913 12.2764 49.0658 12.2028 49.3202 12.0555C49.5745 11.9082 49.7787 11.694 49.9327 11.4129C50.0933 11.125 50.1736 10.7903 50.1736 10.4088Z" fill="white"/>
<path d="M43.4373 9.59552C43.8121 9.66246 44.1301 9.85993 44.3912 10.1879C44.6522 10.5159 44.7828 10.8875 44.7828 11.3025C44.7828 11.6573 44.6891 11.9786 44.5016 12.2664C44.3209 12.5476 44.0565 12.7718 43.7084 12.9392C43.3603 13.0998 42.9553 13.1802 42.4934 13.1802H39.702V6.20166H42.3629C42.8382 6.20166 43.2465 6.28199 43.5879 6.44264C43.9293 6.6033 44.187 6.82086 44.3611 7.09531C44.5351 7.36307 44.6221 7.6643 44.6221 7.999C44.6221 8.40064 44.515 8.73534 44.3008 9.0031C44.0866 9.27086 43.7988 9.46833 43.4373 9.59552ZM40.8467 9.13363H42.2625C42.6373 9.13363 42.9285 9.04996 43.1361 8.88261C43.3503 8.70857 43.4574 8.46089 43.4574 8.13957C43.4574 7.82496 43.3503 7.58063 43.1361 7.40658C42.9285 7.22584 42.6373 7.13547 42.2625 7.13547H40.8467V9.13363ZM42.393 12.2463C42.7813 12.2463 43.0858 12.1526 43.3067 11.9652C43.5277 11.7778 43.6381 11.5167 43.6381 11.182C43.6381 10.8406 43.521 10.5695 43.2867 10.3687C43.0524 10.1679 42.7411 10.0674 42.3529 10.0674H40.8467V12.2463H42.393Z" fill="white"/>
</svg>
