<svg width="129" height="39" viewBox="0 0 129 39" fill="none" xmlns="http://www.w3.org/2000/svg">
<path d="M124.222 39H4.77778C2.15 39 0 36.8063 0 34.125V4.875C0 2.19375 2.15 1.43051e-06 4.77778 1.43051e-06H124.222C126.85 1.43051e-06 129 2.19375 129 4.875V34.125C129 36.8063 126.85 39 124.222 39Z" fill="black"/>
<path d="M102.183 29.2499H103.966V17.0613H102.183V29.2499ZM118.243 21.4519L116.199 26.7363H116.138L114.017 21.4519H112.096L115.277 28.8378L113.464 32.9462H115.324L120.226 21.4519H118.243ZM108.132 27.8655C107.547 27.8655 106.733 27.5677 106.733 26.8304C106.733 25.8896 107.748 25.529 108.623 25.529C109.407 25.529 109.775 25.7014 110.252 25.9369C110.113 27.0658 109.161 27.8655 108.132 27.8655V27.8655ZM108.347 21.1852C107.056 21.1852 105.719 21.7656 105.166 23.0515L106.748 23.7256C107.086 23.0515 107.716 22.8317 108.377 22.8317C109.299 22.8317 110.237 23.3965 110.252 24.4001V24.5254C109.929 24.3372 109.238 24.055 108.393 24.055C106.687 24.055 104.95 25.0113 104.95 26.7991C104.95 28.43 106.349 29.4807 107.916 29.4807C109.115 29.4807 109.775 28.9319 110.191 28.2891H110.252V29.2298H111.973V24.5566C111.973 22.393 110.391 21.1852 108.347 21.1852V21.1852ZM97.3272 22.9357H94.7912V18.7577H97.3272C98.6602 18.7577 99.417 19.8838 99.417 20.8466C99.417 21.7912 98.6602 22.9357 97.3272 22.9357ZM97.2813 17.0613H93.009V29.2499H94.7912V24.6321H97.2813C99.2574 24.6321 101.2 23.1722 101.2 20.8466C101.2 18.5211 99.2574 17.0613 97.2813 17.0613ZM73.9839 27.8678C72.7521 27.8678 71.7208 26.8155 71.7208 25.3701C71.7208 23.9096 72.7521 22.8413 73.9839 22.8413C75.2001 22.8413 76.1545 23.9096 76.1545 25.3701C76.1545 26.8155 75.2001 27.8678 73.9839 27.8678V27.8678ZM76.0313 22.1344H75.9697C75.5696 21.6476 74.7995 21.2078 73.8298 21.2078C71.7977 21.2078 69.9352 23.0297 69.9352 25.3701C69.9352 27.6949 71.7977 29.5013 73.8298 29.5013C74.7995 29.5013 75.5696 29.0614 75.9697 28.5591H76.0313V29.1559C76.0313 30.7426 75.2001 31.5907 73.8608 31.5907C72.7678 31.5907 72.0904 30.7894 71.813 30.1141L70.2584 30.7738C70.7049 31.8733 71.8903 33.2242 73.8608 33.2242C75.9544 33.2242 77.7247 31.9674 77.7247 28.9045V21.4591H76.0313V22.1344ZM78.9562 29.2499H80.7419V17.0609H78.9562V29.2499ZM83.3745 25.2289C83.3282 23.6265 84.5906 22.81 85.4988 22.81C86.2074 22.81 86.8075 23.171 87.0072 23.6898L83.3745 25.2289ZM88.9164 23.8467C88.5781 22.9197 87.5461 21.2078 85.4371 21.2078C83.3435 21.2078 81.6041 22.8885 81.6041 25.3545C81.6041 27.6793 83.3282 29.5013 85.6372 29.5013C87.5003 29.5013 88.5781 28.3389 89.0244 27.6636L87.6388 26.721C87.1773 27.4123 86.5457 27.8678 85.6372 27.8678C84.7291 27.8678 84.0826 27.4436 83.6668 26.6113L89.1008 24.3178L88.9164 23.8467ZM45.6219 22.4801V24.2393H49.7475C49.6243 25.2289 49.3011 25.9513 48.8084 26.454C48.2082 27.0668 47.2691 27.7421 45.6219 27.7421C43.0818 27.7421 41.096 25.6531 41.096 23.0613C41.096 20.4696 43.0818 18.3803 45.6219 18.3803C46.9921 18.3803 47.9924 18.9302 48.7315 19.637L49.9476 18.3962C48.9163 17.3907 47.546 16.6211 45.6219 16.6211C42.1426 16.6211 39.2178 19.5114 39.2178 23.0613C39.2178 26.6113 42.1426 29.5013 45.6219 29.5013C47.5001 29.5013 48.9163 28.8733 50.0245 27.6949C51.1637 26.5325 51.518 24.899 51.518 23.5797C51.518 23.171 51.4873 22.7944 51.4254 22.4801H45.6219ZM56.2084 27.8678C54.9766 27.8678 53.9143 26.8311 53.9143 25.3545C53.9143 23.8623 54.9766 22.8413 56.2084 22.8413C57.4397 22.8413 58.502 23.8623 58.502 25.3545C58.502 26.8311 57.4397 27.8678 56.2084 27.8678V27.8678ZM56.2084 21.2078C53.9606 21.2078 52.1286 22.9512 52.1286 25.3545C52.1286 27.7421 53.9606 29.5013 56.2084 29.5013C58.4558 29.5013 60.2878 27.7421 60.2878 25.3545C60.2878 22.9512 58.4558 21.2078 56.2084 21.2078ZM65.1077 27.8678C63.8764 27.8678 62.814 26.8311 62.814 25.3545C62.814 23.8623 63.8764 22.8413 65.1077 22.8413C66.3391 22.8413 67.4014 23.8623 67.4014 25.3545C67.4014 26.8311 66.3391 27.8678 65.1077 27.8678ZM65.1077 21.2078C62.8599 21.2078 61.0283 22.9512 61.0283 25.3545C61.0283 27.7421 62.8599 29.5013 65.1077 29.5013C67.3552 29.5013 69.1871 27.7421 69.1871 25.3545C69.1871 22.9512 67.3552 21.2078 65.1077 21.2078Z" fill="white"/>
<path d="M10.0426 31.5798L9.97165 31.5105C9.69358 31.2103 9.52942 30.7442 9.52942 30.1405V30.2826V8.71949C9.52942 8.71754 9.52942 8.71608 9.52942 8.71452C9.52942 8.71637 9.52942 8.71793 9.52942 8.71988V8.86232C9.52942 8.20868 9.72082 7.71631 10.0415 7.42108L21.8806 19.5008L10.0426 31.5798ZM9.52942 8.71335C9.52942 8.65962 9.53085 8.60746 9.53353 8.55608C9.53085 8.60707 9.52942 8.65962 9.52942 8.71335ZM9.53353 8.55374C9.53353 8.55306 9.53353 8.55228 9.53381 8.5515C9.53353 8.55228 9.53353 8.55306 9.53353 8.55374ZM9.53381 8.54691C9.53381 8.54652 9.53381 8.54613 9.53381 8.54574C9.53381 8.54613 9.53381 8.54652 9.53381 8.54691Z" fill="url(#paint0_linear_132_117)"/>
<path d="M25.8265 23.6715L25.9165 23.6193L30.592 20.9087C31.0377 20.6502 31.3348 20.3367 31.483 20.005C31.3352 20.3367 31.038 20.6506 30.592 20.9091L25.9165 23.6197L25.8265 23.6715V23.6715ZM25.8277 23.5287L21.8807 19.5007L25.8273 15.4735L30.592 18.2355C31.197 18.5863 31.5367 19.0384 31.5935 19.5004C31.5935 19.5007 31.5935 19.5015 31.5935 19.5022C31.5367 19.9631 31.197 20.4156 30.592 20.7663L25.8277 23.5287" fill="url(#paint1_linear_132_117)"/>
<path d="M10.8866 32.0398C10.5559 32.0398 10.2673 31.9301 10.0423 31.7229L10.0426 31.7225C10.2677 31.9297 10.5566 32.0398 10.8874 32.0398C10.916 32.0398 10.9452 32.039 10.9747 32.0376C10.9448 32.039 10.9153 32.0398 10.8866 32.0398V32.0398ZM10.887 31.897C10.5563 31.8973 10.2677 31.7873 10.0426 31.5801V31.5798L21.8806 19.5008L25.8276 23.5287L11.9575 31.5698C11.5737 31.7919 11.2101 31.897 10.887 31.897V31.897ZM10.0393 31.7203C10.0184 31.7009 9.99782 31.6803 9.97766 31.659L10.0393 31.7203Z" fill="url(#paint2_linear_132_117)"/>
<path d="M21.8806 19.5009L10.0415 7.42109C10.2665 7.21429 10.5547 7.10461 10.8851 7.10461C11.2091 7.10461 11.573 7.2101 11.9575 7.4325L25.8272 15.4736L21.8806 19.5009V19.5009ZM25.9164 15.3826L11.9575 7.29015C11.573 7.06765 11.2091 6.96216 10.8851 6.96216C10.8835 6.96216 10.8825 6.96216 10.881 6.96216C10.8829 6.96216 10.8843 6.96216 10.8866 6.96216C11.2099 6.96216 11.5734 7.06726 11.9575 7.28976L25.9164 15.3826V15.3826Z" fill="url(#paint3_linear_132_117)"/>
<path d="M10.9747 32.0375C11.2752 32.0199 11.6078 31.9144 11.9575 31.7122L25.8264 23.6715L11.9575 31.7122C11.6081 31.9148 11.2752 32.0199 10.9747 32.0375V32.0375ZM10.0423 31.7228L10.0393 31.7202C10.0404 31.721 10.0415 31.7221 10.0423 31.7228ZM9.9777 31.6589L9.97168 31.6528V31.6524C9.97397 31.6547 9.97579 31.6569 9.9777 31.6589Z" fill="black"/>
<path d="M25.8264 23.6715L25.9164 23.6193L25.8264 23.6715Z" fill="url(#paint4_linear_132_117)"/>
<path d="M10.8874 32.0398C10.5567 32.0398 10.2677 31.9297 10.0427 31.7225L10.0423 31.7229C10.0415 31.7221 10.0404 31.7211 10.0393 31.7203L9.9777 31.659C9.97579 31.657 9.97397 31.6548 9.97168 31.6525L10.0427 31.5801C10.2677 31.7873 10.5563 31.8973 10.887 31.897C11.2102 31.897 11.5738 31.7919 11.9575 31.5698L25.8276 23.5287L25.9165 23.6194L25.8264 23.6716L11.9575 31.7123C11.6078 31.9145 11.2752 32.02 10.9747 32.0376C10.9452 32.039 10.9161 32.0398 10.8874 32.0398" fill="url(#paint5_linear_132_117)"/>
<path d="M9.97165 31.6528C9.69358 31.3526 9.52942 30.8865 9.52942 30.2829V30.2825C9.52942 30.8865 9.69358 31.3522 9.97165 31.6524V31.6528" fill="black"/>
<path d="M9.97165 31.6525C9.69358 31.3523 9.52942 30.8865 9.52942 30.2825V30.1404C9.52942 30.7441 9.69358 31.2102 9.97165 31.5104L10.0426 31.5797L9.97165 31.6525" fill="url(#paint6_linear_132_117)"/>
<path d="M9.97168 31.6525L10.0427 31.5797V31.58L9.97168 31.6525" fill="url(#paint7_linear_132_117)"/>
<path d="M31.4829 20.005C31.5564 19.8404 31.5934 19.6714 31.5934 19.5022C31.5934 19.5019 31.5934 19.5015 31.5934 19.5015C31.5934 19.671 31.5564 19.84 31.4829 20.005Z" fill="black"/>
<path d="M25.9165 23.6194L25.8276 23.5287L30.5919 20.7663C31.197 20.4156 31.5367 19.9631 31.5935 19.5023C31.5935 19.6714 31.5565 19.8405 31.483 20.0051C31.3348 20.3368 31.0377 20.6502 30.5919 20.9088L25.9165 23.6194Z" fill="url(#paint8_linear_132_117)"/>
<path d="M31.5935 19.5009V19.5005C31.5931 18.9904 31.259 18.4805 30.592 18.0935L25.9165 15.3829H25.9161L25.9165 15.3826L30.592 18.0932C31.2598 18.4801 31.5942 18.9908 31.5935 19.5009Z" fill="#404040"/>
<path d="M31.5935 19.5004C31.5367 19.0384 31.197 18.5863 30.592 18.2355L25.8273 15.4735L25.9161 15.3828H25.9165L30.592 18.0934C31.259 18.4804 31.5931 18.9903 31.5935 19.5004Z" fill="url(#paint9_linear_132_117)"/>
<path d="M9.52942 8.71448C9.52942 8.71409 9.52942 8.7137 9.52942 8.71331C9.52942 8.7137 9.52942 8.71409 9.52942 8.71448ZM9.53353 8.55604C9.53353 8.55526 9.53353 8.55448 9.53353 8.5537C9.53353 8.55448 9.53353 8.55526 9.53353 8.55604ZM9.53381 8.55146C9.53381 8.5499 9.53381 8.54844 9.53381 8.54688C9.53381 8.54844 9.53381 8.5499 9.53381 8.55146ZM9.53381 8.54571C9.58914 7.54409 10.1229 6.96552 10.878 6.96211C10.5506 6.96406 10.2655 7.07375 10.0423 7.27898V7.27859L10.0396 7.28132C10.0161 7.30297 9.99372 7.32588 9.97165 7.34948C9.72082 7.62023 9.56258 8.02584 9.53381 8.54571Z" fill="#404040"/>
<path d="M9.52942 8.8623V8.71986C9.52942 8.71791 9.52942 8.71635 9.52942 8.7145C9.52942 8.71411 9.52942 8.71372 9.52942 8.71333C9.52942 8.6596 9.53085 8.60705 9.53353 8.55606C9.53353 8.55528 9.53353 8.5545 9.53353 8.55372C9.53353 8.55304 9.53353 8.55226 9.53381 8.55148C9.53381 8.54992 9.53381 8.54845 9.53381 8.54689C9.53381 8.5465 9.53381 8.54611 9.53381 8.54572C9.56258 8.02585 9.72082 7.62025 9.97165 7.34949L10.0415 7.42106C9.72082 7.71629 9.52942 8.20866 9.52942 8.8623V8.8623ZM10.0396 7.28134L10.0423 7.27861C10.0415 7.27978 10.0404 7.28056 10.0396 7.28134Z" fill="url(#paint10_linear_132_117)"/>
<path d="M25.8272 15.4735L11.9575 7.43239C11.573 7.20999 11.2091 7.1045 10.8851 7.1045C10.5548 7.1045 10.2666 7.21419 10.0415 7.42098L9.97168 7.34942C9.99375 7.32582 10.0161 7.30291 10.0396 7.28127C10.0404 7.28049 10.0415 7.27971 10.0423 7.27893C10.2655 7.07369 10.5507 6.964 10.878 6.96205C10.8788 6.96205 10.8798 6.96205 10.881 6.96205C10.8825 6.96205 10.8836 6.96205 10.8851 6.96205C11.2091 6.96205 11.573 7.06754 11.9575 7.29004L25.9165 15.3825L25.9161 15.3828L25.8272 15.4735Z" fill="url(#paint11_linear_132_117)"/>
<path d="M80.1202 10.3887C80.1202 9.83309 80.234 9.34108 80.4616 8.91267C80.6959 8.48425 81.0105 8.1529 81.4055 7.9186C81.8071 7.67762 82.2489 7.55713 82.7309 7.55713C83.166 7.55713 83.5442 7.64415 83.8655 7.81819C84.1935 7.98555 84.4546 8.19641 84.6487 8.45078V7.6475H85.8034V13.1801H84.6487V12.3567C84.4546 12.6178 84.1902 12.8354 83.8555 13.0094C83.5208 13.1834 83.1392 13.2705 82.7108 13.2705C82.2355 13.2705 81.8004 13.15 81.4055 12.909C81.0105 12.6613 80.6959 12.3199 80.4616 11.8848C80.234 11.443 80.1202 10.9443 80.1202 10.3887ZM84.6487 10.4088C84.6487 10.0272 84.5684 9.69586 84.4077 9.41472C84.2538 9.13357 84.0496 8.91936 83.7952 8.77209C83.5409 8.62482 83.2664 8.55119 82.9719 8.55119C82.6773 8.55119 82.4029 8.62482 82.1485 8.77209C81.8942 8.91267 81.6866 9.12353 81.526 9.40467C81.372 9.67913 81.295 10.0071 81.295 10.3887C81.295 10.7703 81.372 11.105 81.526 11.3928C81.6866 11.6806 81.8942 11.9015 82.1485 12.0555C82.4096 12.2028 82.684 12.2764 82.9719 12.2764C83.2664 12.2764 83.5409 12.2028 83.7952 12.0555C84.0496 11.9082 84.2538 11.694 84.4077 11.4129C84.5684 11.125 84.6487 10.7903 84.6487 10.4088Z" fill="white"/>
<path d="M76.7724 7.55713C77.2075 7.55713 77.5957 7.6475 77.9371 7.82824C78.2852 8.00897 78.5563 8.27673 78.7504 8.63152C78.9446 8.9863 79.0416 9.41472 79.0416 9.91677V13.1801H77.907V10.0875C77.907 9.59211 77.7832 9.2139 77.5355 8.95283C77.2878 8.68507 76.9497 8.55119 76.5213 8.55119C76.0929 8.55119 75.7515 8.68507 75.4972 8.95283C75.2495 9.2139 75.1256 9.59211 75.1256 10.0875V13.1801H73.981V7.6475H75.1256V8.28008C75.3131 8.05249 75.5507 7.87509 75.8385 7.74791C76.1331 7.62072 76.4444 7.55713 76.7724 7.55713Z" fill="white"/>
<path d="M68.6637 8.45078C68.8311 8.16963 69.052 7.95208 69.3264 7.79811C69.6076 7.63746 69.9389 7.55713 70.3205 7.55713V8.74197H70.0293C69.5808 8.74197 69.2394 8.85577 69.0051 9.08336C68.7775 9.31096 68.6637 9.7059 68.6637 10.2682V13.1801H67.519V7.6475H68.6637V8.45078Z" fill="white"/>
<path d="M60.3324 10.3887C60.3324 9.83309 60.4462 9.34108 60.6738 8.91267C60.9081 8.48425 61.2227 8.1529 61.6176 7.9186C62.0193 7.67762 62.4611 7.55713 62.9431 7.55713C63.3782 7.55713 63.7564 7.64415 64.0777 7.81819C64.4057 7.98555 64.6668 8.19641 64.8609 8.45078V7.6475H66.0156V13.1801H64.8609V12.3567C64.6668 12.6178 64.4024 12.8354 64.0677 13.0094C63.733 13.1834 63.3514 13.2705 62.923 13.2705C62.4477 13.2705 62.0126 13.15 61.6176 12.909C61.2227 12.6613 60.9081 12.3199 60.6738 11.8848C60.4462 11.443 60.3324 10.9443 60.3324 10.3887ZM64.8609 10.4088C64.8609 10.0272 64.7806 9.69586 64.6199 9.41472C64.4659 9.13357 64.2618 8.91936 64.0074 8.77209C63.753 8.62482 63.4786 8.55119 63.184 8.55119C62.8895 8.55119 62.6151 8.62482 62.3607 8.77209C62.1063 8.91267 61.8988 9.12353 61.7381 9.40467C61.5842 9.67913 61.5072 10.0071 61.5072 10.3887C61.5072 10.7703 61.5842 11.105 61.7381 11.3928C61.8988 11.6806 62.1063 11.9015 62.3607 12.0555C62.6217 12.2028 62.8962 12.2764 63.184 12.2764C63.4786 12.2764 63.753 12.2028 64.0074 12.0555C64.2618 11.9082 64.4659 11.694 64.6199 11.4129C64.7806 11.125 64.8609 10.7903 64.8609 10.4088Z" fill="white"/>
<path d="M58.0729 10.3787L59.8602 13.1802H58.5649L57.37 11.3025L56.2454 13.1802H55.0505L56.8378 10.4591L55.0505 7.64758H56.3458L57.5407 9.52525L58.6653 7.64758H59.8602L58.0729 10.3787Z" fill="white"/>
<path d="M53.6381 6.9146C53.4306 6.9146 53.2566 6.84431 53.116 6.70373C52.9754 6.56316 52.9052 6.38912 52.9052 6.1816C52.9052 5.97409 52.9754 5.80004 53.116 5.65947C53.2566 5.5189 53.4306 5.44861 53.6381 5.44861C53.839 5.44861 54.0097 5.5189 54.1502 5.65947C54.2908 5.80004 54.3611 5.97409 54.3611 6.1816C54.3611 6.38912 54.2908 6.56316 54.1502 6.70373C54.0097 6.84431 53.839 6.9146 53.6381 6.9146ZM54.2004 7.64759V13.1802H53.0558V7.64759H54.2004Z" fill="white"/>
<path d="M45.869 10.3887C45.869 9.83309 45.9828 9.34108 46.2104 8.91267C46.4447 8.48425 46.7593 8.1529 47.1543 7.9186C47.5559 7.67762 47.9977 7.55713 48.4797 7.55713C48.9148 7.55713 49.293 7.64415 49.6143 7.81819C49.9423 7.98555 50.2034 8.19641 50.3975 8.45078V7.6475H51.5522V13.1801H50.3975V12.3567C50.2034 12.6178 49.939 12.8354 49.6043 13.0094C49.2696 13.1834 48.888 13.2705 48.4596 13.2705C47.9843 13.2705 47.5492 13.15 47.1543 12.909C46.7593 12.6613 46.4447 12.3199 46.2104 11.8848C45.9828 11.443 45.869 10.9443 45.869 10.3887ZM50.3975 10.4088C50.3975 10.0272 50.3172 9.69586 50.1565 9.41472C50.0026 9.13357 49.7984 8.91936 49.544 8.77209C49.2897 8.62482 49.0152 8.55119 48.7207 8.55119C48.4261 8.55119 48.1517 8.62482 47.8973 8.77209C47.6429 8.91267 47.4354 9.12353 47.2748 9.40467C47.1208 9.67913 47.0438 10.0071 47.0438 10.3887C47.0438 10.7703 47.1208 11.105 47.2748 11.3928C47.4354 11.6806 47.6429 11.9015 47.8973 12.0555C48.1584 12.2028 48.4328 12.2764 48.7207 12.2764C49.0152 12.2764 49.2897 12.2028 49.544 12.0555C49.7984 11.9082 50.0026 11.694 50.1565 11.4129C50.3172 11.125 50.3975 10.7903 50.3975 10.4088Z" fill="white"/>
<path d="M43.6612 9.59552C44.036 9.66246 44.354 9.85993 44.6151 10.1879C44.8761 10.5159 45.0067 10.8875 45.0067 11.3025C45.0067 11.6573 44.9129 11.9786 44.7255 12.2664C44.5448 12.5476 44.2804 12.7718 43.9323 12.9392C43.5842 13.0998 43.1792 13.1802 42.7173 13.1802H39.9259V6.20166H42.5868C43.062 6.20166 43.4704 6.28199 43.8118 6.44264C44.1532 6.6033 44.4109 6.82086 44.5849 7.09531C44.759 7.36307 44.846 7.6643 44.846 7.999C44.846 8.40064 44.7389 8.73534 44.5247 9.0031C44.3105 9.27086 44.0226 9.46833 43.6612 9.59552ZM41.0706 9.13363H42.4864C42.8612 9.13363 43.1524 9.04996 43.3599 8.88261C43.5741 8.70857 43.6812 8.46089 43.6812 8.13957C43.6812 7.82496 43.5741 7.58063 43.3599 7.40658C43.1524 7.22584 42.8612 7.13547 42.4864 7.13547H41.0706V9.13363ZM42.6169 12.2463C43.0051 12.2463 43.3097 12.1526 43.5306 11.9652C43.7515 11.7778 43.862 11.5167 43.862 11.182C43.862 10.8406 43.7448 10.5695 43.5105 10.3687C43.2763 10.1679 42.965 10.0674 42.5767 10.0674H41.0706V12.2463H42.6169Z" fill="white"/>
<defs>
<linearGradient id="paint0_linear_132_117" x1="20.8309" y1="8.49202" x2="4.47125" y2="24.5254" gradientUnits="userSpaceOnUse">
<stop stop-color="#00A0FF"/>
<stop offset="0.00657445" stop-color="#00A1FF"/>
<stop offset="0.2601" stop-color="#00BEFF"/>
<stop offset="0.5122" stop-color="#00D2FF"/>
<stop offset="0.7604" stop-color="#00DFFF"/>
<stop offset="1" stop-color="#00E3FF"/>
</linearGradient>
<linearGradient id="paint1_linear_132_117" x1="32.3307" y1="19.5013" x2="9.20912" y2="19.5013" gradientUnits="userSpaceOnUse">
<stop stop-color="#FFE000"/>
<stop offset="0.4087" stop-color="#FFBD00"/>
<stop offset="0.7754" stop-color="#FFA500"/>
<stop offset="1" stop-color="#FF9C00"/>
</linearGradient>
<linearGradient id="paint2_linear_132_117" x1="23.7235" y1="21.7387" x2="1.53866" y2="43.4811" gradientUnits="userSpaceOnUse">
<stop stop-color="#FF3A44"/>
<stop offset="1" stop-color="#C31162"/>
</linearGradient>
<linearGradient id="paint3_linear_132_117" x1="6.97293" y1="0.171867" x2="16.8794" y2="9.88073" gradientUnits="userSpaceOnUse">
<stop stop-color="#32A071"/>
<stop offset="0.0685" stop-color="#2DA771"/>
<stop offset="0.4762" stop-color="#15CF74"/>
<stop offset="0.8009" stop-color="#06E775"/>
<stop offset="1" stop-color="#00F076"/>
</linearGradient>
<linearGradient id="paint4_linear_132_117" x1="32.3303" y1="19.5011" x2="9.20969" y2="19.5011" gradientUnits="userSpaceOnUse">
<stop stop-color="#CCB300"/>
<stop offset="0.4087" stop-color="#CC9700"/>
<stop offset="0.7754" stop-color="#CC8400"/>
<stop offset="1" stop-color="#CC7D00"/>
</linearGradient>
<linearGradient id="paint5_linear_132_117" x1="23.7236" y1="21.7387" x2="1.5387" y2="43.4811" gradientUnits="userSpaceOnUse">
<stop stop-color="#CC2E36"/>
<stop offset="1" stop-color="#9C0E4E"/>
</linearGradient>
<linearGradient id="paint6_linear_132_117" x1="20.8308" y1="8.4919" x2="4.47121" y2="24.5252" gradientUnits="userSpaceOnUse">
<stop stop-color="#008DE0"/>
<stop offset="0.00657445" stop-color="#008DE0"/>
<stop offset="0.2601" stop-color="#00A7E0"/>
<stop offset="0.5122" stop-color="#00B8E0"/>
<stop offset="0.7604" stop-color="#00C4E0"/>
<stop offset="1" stop-color="#00C7E0"/>
</linearGradient>
<linearGradient id="paint7_linear_132_117" x1="23.7235" y1="21.7384" x2="1.53795" y2="43.4806" gradientUnits="userSpaceOnUse">
<stop stop-color="#E0333C"/>
<stop offset="1" stop-color="#AB0F56"/>
</linearGradient>
<linearGradient id="paint8_linear_132_117" x1="32.3307" y1="19.5014" x2="9.20909" y2="19.5014" gradientUnits="userSpaceOnUse">
<stop stop-color="#E0C500"/>
<stop offset="0.4087" stop-color="#E0A600"/>
<stop offset="0.7754" stop-color="#E09100"/>
<stop offset="1" stop-color="#E08900"/>
</linearGradient>
<linearGradient id="paint9_linear_132_117" x1="32.3307" y1="19.5013" x2="9.20912" y2="19.5013" gradientUnits="userSpaceOnUse">
<stop stop-color="#FFE840"/>
<stop offset="0.4087" stop-color="#FFCE40"/>
<stop offset="0.7754" stop-color="#FFBC40"/>
<stop offset="1" stop-color="#FFB540"/>
</linearGradient>
<linearGradient id="paint10_linear_132_117" x1="20.8309" y1="8.492" x2="4.47122" y2="24.5253" gradientUnits="userSpaceOnUse">
<stop stop-color="#40B8FF"/>
<stop offset="0.00657445" stop-color="#40B9FF"/>
<stop offset="0.2601" stop-color="#40CEFF"/>
<stop offset="0.5122" stop-color="#40DDFF"/>
<stop offset="0.7604" stop-color="#40E7FF"/>
<stop offset="1" stop-color="#40EAFF"/>
</linearGradient>
<linearGradient id="paint11_linear_132_117" x1="6.97296" y1="0.17176" x2="16.8794" y2="9.88062" gradientUnits="userSpaceOnUse">
<stop stop-color="#65B895"/>
<stop offset="0.0685" stop-color="#62BD95"/>
<stop offset="0.4762" stop-color="#50DB97"/>
<stop offset="0.8009" stop-color="#44ED98"/>
<stop offset="1" stop-color="#40F498"/>
</linearGradient>
</defs>
</svg>
